<svg width="35" height="35" viewBox="0 0 35 35" fill="none" xmlns="http://www.w3.org/2000/svg">
<path d="M2.91666 8.10415C2.91666 6.4473 4.2598 5.10416 5.91666 5.10416H29.0833C30.7402 5.10416 32.0833 6.4473 32.0833 8.10416V26.8958C32.0833 28.5527 30.7402 29.8958 29.0833 29.8958H5.91665C4.2598 29.8958 2.91666 28.5527 2.91666 26.8958V8.10415Z" fill="#102542"/>
<path d="M7 8.89999C7 8.62385 7.22386 8.39999 7.5 8.39999H27.5C27.7761 8.39999 28 8.62385 28 8.89999V12.1C28 12.3761 27.7761 12.6 27.5 12.6H7.5C7.22386 12.6 7 12.3761 7 12.1V8.89999Z" fill="white"/>
<path d="M7 20.1C7 19.8239 7.22386 19.6 7.5 19.6H14.9C15.1761 19.6 15.4 19.8239 15.4 20.1V26.1C15.4 26.3761 15.1761 26.6 14.9 26.6H7.5C7.22386 26.6 7 26.3761 7 26.1V20.1Z" fill="white"/>
<path d="M18.9583 15.8125C18.9583 15.5364 19.1822 15.3125 19.4583 15.3125H27.9375C28.2136 15.3125 28.4375 15.5364 28.4375 15.8125V26.4792C28.4375 26.7553 28.2136 26.9792 27.9375 26.9792H19.4583C19.1822 26.9792 18.9583 26.7553 18.9583 26.4792V15.8125Z" fill="white"/>
</svg>
